<?xml version="1.0" encoding="UTF-8"?>
<svg width="87px" height="87px" viewBox="0 0 87 87" version="1.1" xmlns="http://www.w3.org/2000/svg" xmlns:xlink="http://www.w3.org/1999/xlink">
    <!-- Generator: Sketch 43 (38999) - http://www.bohemiancoding.com/sketch -->
    <title>clock (2)</title>
    <desc>Created with Sketch.</desc>
    <defs></defs>
    <g id="Page-1" stroke="none" stroke-width="1" fill="none" fill-rule="evenodd">
        <g id="Desktop-HD" transform="translate(-1182.000000, -1511.000000)" fill-rule="nonzero" fill="#000000">
            <g id="clock-(2)" transform="translate(1182.000000, 1511.000000)">
                <circle id="Oval" cx="43.5" cy="43.5" r="2.9"></circle>
                <path d="M0,0 L0,87 L87,87 L87,0 L0,0 Z M71.8997,13.05 L72.92485,12.02485 C73.4918,11.4579 74.4082,11.4579 74.97515,12.02485 C75.5421,12.5918 75.5421,13.5082 74.97515,14.07515 L73.95,15.1003 C73.66725,15.38305 73.29605,15.52515 72.92485,15.52515 C72.55365,15.52515 72.18245,15.38305 71.8997,15.1003 C71.33275,14.53335 71.33275,13.61695 71.8997,13.05 Z M42.05,11.6 C42.05,10.79815 42.6996,10.15 43.5,10.15 C44.3004,10.15 44.95,10.79815 44.95,11.6 L44.95,13.05 C44.95,13.85185 44.3004,14.5 43.5,14.5 C42.6996,14.5 42.05,13.85185 42.05,13.05 L42.05,11.6 Z M11.7247,11.7247 C12.29165,11.15775 13.20805,11.15775 13.775,11.7247 L14.80015,12.74985 C15.3671,13.3168 15.3671,14.2332 14.80015,14.80015 C14.5174,15.0829 14.1462,15.225 13.775,15.225 C13.4038,15.225 13.0326,15.0829 12.74985,14.80015 L11.7247,13.775 C11.15775,13.20805 11.15775,12.29165 11.7247,11.7247 Z M10.15,43.5 C10.15,42.69815 10.7996,42.05 11.6,42.05 L13.05,42.05 C13.8504,42.05 14.5,42.69815 14.5,43.5 C14.5,44.30185 13.8504,44.95 13.05,44.95 L11.6,44.95 C10.7996,44.95 10.15,44.30185 10.15,43.5 Z M15.31345,73.7383 L14.2883,74.76345 C14.00555,75.0462 13.63435,75.1883 13.26315,75.1883 C12.89195,75.1883 12.52075,75.0462 12.238,74.76345 C11.67105,74.1965 11.67105,73.2801 12.238,72.71315 L13.26315,71.688 C13.8301,71.12105 14.7465,71.12105 15.31345,71.688 C15.8804,72.25495 15.87895,73.17135 15.31345,73.7383 Z M44.95,75.4 C44.95,76.20185 44.3004,76.85 43.5,76.85 C42.6996,76.85 42.05,76.20185 42.05,75.4 L42.05,73.95 C42.05,73.14815 42.6996,72.5 43.5,72.5 C44.3004,72.5 44.95,73.14815 44.95,73.95 L44.95,75.4 Z M43.5,49.3 C40.8059,49.3 38.55405,47.444 37.9059,44.95 L27.55,44.95 C26.7496,44.95 26.1,44.30185 26.1,43.5 C26.1,42.69815 26.7496,42.05 27.55,42.05 L37.9059,42.05 C38.4337,40.02145 40.02145,38.4337 42.05,37.9059 L42.05,23.2 C42.05,22.39815 42.6996,21.75 43.5,21.75 C44.3004,21.75 44.95,22.39815 44.95,23.2 L44.95,37.9059 C47.444,38.55405 49.3,40.80445 49.3,43.5 C49.3,46.6987 46.6987,49.3 43.5,49.3 Z M74.76345,74.76345 C74.4807,75.0462 74.1095,75.1883 73.7383,75.1883 C73.3671,75.1883 72.9959,75.0462 72.71315,74.76345 L71.688,73.7383 C71.12105,73.17135 71.12105,72.25495 71.688,71.688 C72.25495,71.12105 73.17135,71.12105 73.7383,71.688 L74.76345,72.71315 C75.32895,73.27865 75.32895,74.1965 74.76345,74.76345 Z M75.4,44.95 L73.95,44.95 C73.1496,44.95 72.5,44.30185 72.5,43.5 C72.5,42.69815 73.1496,42.05 73.95,42.05 L75.4,42.05 C76.2004,42.05 76.85,42.69815 76.85,43.5 C76.85,44.30185 76.2004,44.95 75.4,44.95 Z" id="Shape"></path>
            </g>
        </g>
    </g>
</svg>