<?xml version="1.0" encoding="UTF-8"?>
<svg width="243px" height="347px" viewBox="0 0 243 347" version="1.1" xmlns="http://www.w3.org/2000/svg" xmlns:xlink="http://www.w3.org/1999/xlink">
    <!-- Generator: Sketch 43 (38999) - http://www.bohemiancoding.com/sketch -->
    <title>lighthouse</title>
    <desc>Created with Sketch.</desc>
    <defs></defs>
    <g id="Page-1" stroke="none" stroke-width="1" fill="none" fill-rule="evenodd">
        <g id="Desktop-HD" transform="translate(-1027.000000, -202.000000)">
            <g id="lighthouse" transform="translate(972.000000, 202.000000)">
                <path d="M230.936627,58.860222 L230.936627,106.073736 L114.47488,106.073736 L114.47488,58.860222 C114.47488,57.051658 114.559398,55.264608 114.720813,53.498378 C117.417771,23.798648 142.352681,0.529522 172.702289,0.529522 C203.058825,0.529522 227.993735,23.798648 230.690693,53.498378 C230.852108,55.265302 230.936627,57.052352 230.936627,58.860222 Z" id="Shape" fill="#EEEEEE" fill-rule="nonzero"></path>
                <path d="M143.165994,53.498378 C145.427199,28.59974 163.32009,8.230146 186.926265,2.292282 C182.372681,1.146488 177.60988,0.530216 172.702289,0.530216 C142.352681,0.530216 117.417771,23.799342 114.720813,53.499072 C114.559398,55.265302 114.47488,57.052352 114.47488,58.860916 L114.47488,106.07443 L142.92006,106.07443 L142.92006,58.860916 C142.92006,57.052352 143.003886,55.265302 143.165994,53.498378 Z" id="Shape" fill="#DBDDDD" fill-rule="nonzero"></path>
                <g id="Group-3" transform="translate(61.000000, 40.000000)" stroke-width="11" stroke="#FFD12E">
                    <polyline id="Path-5" points="222 0 231 24.2163793 231 43.2788466 222 64.6706617"></polyline>
                    <polyline id="Path-5-Copy-2" transform="translate(4.500000, 33.335331) scale(-1, 1) translate(-4.500000, -33.335331) " points="0 1 9 25.2163793 9 44.2788466 0 65.6706617"></polyline>
                    <polyline id="Path-5-Copy" points="202 19 206 29.7628352 206 38.235043 202 47.7425163"></polyline>
                    <polyline id="Path-5-Copy-3" transform="translate(26.000000, 33.371258) scale(-1, 1) translate(-26.000000, -33.371258) " points="24 19 28 29.7628352 28 38.235043 24 47.7425163"></polyline>
                </g>
                <g id="Group" transform="translate(87.981928, 25.678000)" fill-rule="nonzero">
                    <rect id="Rectangle-path" fill="#059FDC" x="0.326295181" y="80.394348" width="44.2445181" height="38.889678"></rect>
                    <path d="M157.704488,10.574478 L11.7431627,10.574478 C8.83421687,10.574478 6.47533133,8.211408 6.47533133,5.297302 C6.47533133,2.383196 8.83421687,0.020126 11.7431627,0.020126 L157.704488,0.020126 C160.613434,0.020126 162.972319,2.383196 162.972319,5.297302 C162.972319,8.211408 160.613434,10.574478 157.704488,10.574478 Z" id="Shape" fill="#00B3F4"></path>
                </g>
                <path d="M264.712681,344.84166 C252.17491,346.938234 93.0731024,346.84732 80.6413253,344.897874 L99.7950602,159.738674 L101.326084,144.96272 L244.084729,144.96272 L245.608825,159.738674 L264.712681,344.84166 Z" id="Shape" fill="#E6EBED" fill-rule="nonzero"></path>
                <path d="M223.862048,30.975996 L121.546687,30.975996 C131.415211,12.836224 150.62506,0.530216 172.700904,0.530216 C173.620904,0.530216 174.540904,0.551036 175.453976,0.59337 C175.749096,0.60725 176.036596,0.621824 176.324789,0.642644 C177.013404,0.684978 177.694398,0.741192 178.368464,0.804346 C178.600542,0.825166 178.825,0.85362 179.057078,0.87444 C179.359127,0.909834 179.661175,0.944534 179.963223,0.979928 C198.941687,3.34508 215.089488,14.855764 223.862048,30.975996 Z" id="Shape" fill="#00B3F4" fill-rule="nonzero"></path>
                <path d="M137.988916,346.279628 C129.406175,344.936044 93.0717169,346.848014 80.6399398,344.898568 L101.324699,144.963414 L143.088404,144.963414 L137.988916,346.279628 Z" id="Shape" fill="#DBDDDD" fill-rule="nonzero"></path>
                <polygon id="Shape" fill="#C3D1D8" fill-rule="nonzero" points="245.60744 159.739368 99.7936747 159.739368 101.324699 144.963414 244.083343 144.963414"></polygon>
                <g id="Group" transform="translate(114.307229, 53.438000)" fill-rule="nonzero" fill="#FFDD4A">
                    <path d="M116.629398,5.422916 L116.629398,52.63643 L99.7721988,52.63643 L99.7721988,16.941234 C99.7721988,7.702706 107.182078,0.188074 116.383464,0.061072 C116.54488,1.827302 116.629398,3.614352 116.629398,5.422916 Z M75.2591867,16.941234 L75.2591867,52.63643 L41.5447892,52.63643 L41.5447892,16.941234 C41.5447892,7.618038 49.0883735,0.054132 58.401988,0.054132 C67.7086747,0.054132 75.2591867,7.618038 75.2591867,16.941234 Z M17.0248494,16.941234 L17.0248494,52.63643 L0.167650602,52.63643 L0.167650602,5.422916 C0.167650602,3.614352 0.252168675,1.827302 0.413584337,0.061072 C9.61496988,0.188074 17.0248494,7.702706 17.0248494,16.941234 Z" id="Combined-Shape"></path>
                </g>
                <path d="M186.924187,2.289506 C170.993916,6.293192 157.669849,16.868364 149.993253,30.975996 L121.546687,30.975996 C131.415211,12.836224 150.62506,0.530216 172.700904,0.530216 C173.620904,0.530216 174.540904,0.551036 175.453976,0.59337 C175.749096,0.60725 176.036596,0.621824 176.324789,0.642644 C177.013404,0.684978 177.694398,0.741192 178.368464,0.804346 C178.600542,0.825166 178.825,0.85362 179.057078,0.87444 C179.359127,0.909834 179.661175,0.944534 179.963223,0.979928 C182.330422,1.282512 184.655361,1.719038 186.924187,2.289506 Z" id="Shape" fill="#00A1DA" fill-rule="nonzero"></path>
                <rect id="Rectangle-path" fill="#30AFF5" fill-rule="nonzero" x="88.3082229" y="106.072348" width="168.788825" height="38.889678"></rect>
            </g>
        </g>
    </g>
</svg>