<?xml version="1.0" encoding="UTF-8"?>
<svg width="67px" height="30px" viewBox="0 0 67 30" version="1.1" xmlns="http://www.w3.org/2000/svg" xmlns:xlink="http://www.w3.org/1999/xlink">
    <!-- Generator: Sketch 43 (38999) - http://www.bohemiancoding.com/sketch -->
    <title>Artboard 3</title>
    <desc>Created with Sketch.</desc>
    <defs>
        <linearGradient x1="17.2059257%" y1="-42.4766629%" x2="81.1673045%" y2="116.190827%" id="linearGradient-1">
            <stop stop-color="#E73FC3" offset="0%"></stop>
            <stop stop-color="#7B1FA2" offset="99.9044874%"></stop>
            <stop stop-color="#7B1FA2" offset="100%"></stop>
        </linearGradient>
    </defs>
    <g id="Page-1" stroke="none" stroke-width="1" fill="none" fill-rule="evenodd">
        <g id="Artboard-3" fill="url(#linearGradient-1)">
            <g id="Tarino-Logo">
                <path d="M66.988056,6.66288561 L61.3288112,6.66288561 C61.3288112,6.66288561 60.5413254,6.66288557 60.0060265,7.20514037 C59.4707275,7.74739517 59.5443318,9.22343066 59.5443318,9.22343066 L56.1248353,9.22343066 C56.1248353,9.22343066 55.9827273,6.90121863 57.2846401,5.17971566 C58.5865529,3.45821268 60.2489456,3.34653325 60.2489456,3.34653325 L66.988056,3.34653325 L66.988056,6.66288561 Z M66.918406,10.3469846 L66.918406,16.0063579 C66.918406,16.0063579 66.6933741,18.2512791 65.2406648,19.8068556 C63.7879554,21.362432 61.2273609,21.2033162 61.2273609,21.2033162 L54.5740291,21.2033162 C54.5740291,21.2033162 52.7653958,21.0637558 50.7327872,20.1220166 C48.7001786,19.1802774 48.7001786,16.0205542 48.7001786,16.0205542 L48.7001786,0.0096772939 L52.4861053,0.0096772939 L52.4861052,15.0559266 C52.4861052,15.0559266 52.5379526,16.6928727 53.0875328,17.074007 C53.6371131,17.4551413 55.7202919,17.4551409 55.7202919,17.4551409 L60.9911766,17.4551409 C60.9911766,17.4551409 62.1519412,17.475248 62.6788033,16.9142262 C63.2056653,16.3532044 63.1813014,15.1230166 63.1813014,15.1230166 L63.1603058,10.3469842 L66.918406,10.3469846 Z M42.9194658,10.4055926 L46.7436441,10.4055926 L46.7436441,20.8922895 C46.7436441,20.8922895 46.8826998,24.0277391 44.4920488,26.7921399 C42.1013978,29.5565407 38.9154522,29.6032988 38.9154522,29.6032988 L35.37914,29.6032988 L35.37914,25.8658557 L37.7832216,25.8658557 C37.7832216,25.8658557 40.0896507,25.6411019 41.5750719,24.3208839 C43.0604931,23.0006659 42.9194658,21.3164594 42.9194658,21.3164594 L42.9194658,10.4055926 Z M23.1271224,25.8868281 L32.5802428,25.8868281 L32.5802428,29.5773309 L23.1621603,29.5773309 L23.1271224,25.8868281 Z M16.0045656,3.34409798 L19.8153765,3.34409798 L19.8153765,7.10656544 L16.0152037,7.10656544 L16.0045656,3.34409798 Z M38.1747772,17.477683 L38.1747772,21.2140976 L25.9348476,21.2140976 C25.9348476,21.2140976 24.8348716,21.1943971 23.7874389,20.859134 C22.7400063,20.523871 21.9950159,19.9530331 21.9950159,19.9530331 C21.9950159,19.9530331 21.3420509,20.4648271 20.63968,20.7638348 C19.9373091,21.0628426 19.1068322,21.1825676 19.1068322,21.1825676 L12.6103437,21.1825676 C12.6103437,21.1825676 12.7763655,25.5590594 9.11107628,27.9368256 C5.44578703,30.3145918 0.370850169,29.6655307 0.370850169,29.6655307 L0.370850169,25.8504726 L3.80376926,25.8504726 C3.80376926,25.8504726 6.01693132,25.7707742 7.41445953,24.208189 C8.81198774,22.6456038 8.64845301,21.2097529 8.64845301,21.2097529 C8.64845301,21.2097529 5.97674659,21.4488774 3.17379838,20.3235794 C0.37085017,19.1982815 0.0605952333,15.8419837 0.0605952336,13.6754662 C0.060595234,11.5089487 0.760615082,9.76993137 1.92774579,8.62837986 C3.09487649,7.48682835 5.39182654,7.46862748 6.70590459,7.46862749 C8.01998263,7.46862749 9.72585152,8.10103577 10.8257568,9.27897797 C11.925662,10.4569202 12.4095632,13.1323263 12.5330657,14.1086606 C12.6565683,15.0849949 12.6103437,17.4411212 12.6103437,17.4411212 L17.5110552,17.4411212 C17.5110552,17.4411212 18.924818,17.4873061 19.47671,16.9899795 C20.028602,16.4926529 20.0286027,15.2279532 20.0286027,15.2279532 L20.0286027,10.363672 L23.7874398,10.363672 L23.7874398,15.1881976 C23.7874398,15.1881976 23.8167027,16.3163575 24.8267602,16.8956277 C25.8368177,17.4748978 27.7094744,17.4374929 27.7094744,17.4374929 L38.1747772,17.477683 Z M8.76235056,17.4660447 L8.7311502,14.2001093 C8.7311502,14.2001093 8.64196887,12.7072456 8.08156907,12.1105168 C7.52116927,11.513788 7.23398066,11.0236832 5.41911761,11.2368873 C3.60425456,11.4500914 3.40592757,15.5191358 4.4125226,16.4539512 C5.41911763,17.3887667 6.55186887,17.3887667 6.55186887,17.3887667 L8.76235056,17.4660447 Z" id="Combined-Shape"></path>
            </g>
        </g>
    </g>
</svg>